<svg xmlns="http://www.w3.org/2000/svg" viewBox="0 0 286.1 195.5">
<path class="st0" d="M138.9,7.5c-0.5-0.5-0.8-1.6-0.8-3.2c0-1.6,0.2-2.7,0.8-3.4c10.8,0.3,17.9,0.4,21.5,0.4c3.7,0,9.4-0.1,17.3-0.4
	c0.6,0.6,1,1.7,1,3.3c0,1.6-0.3,2.6-1,3.2c-3,0.3-5.5,1-7.6,1.9c-2.1,1-3.9,2.4-5.4,4.4c-1.5,2-2.6,3.7-3.4,5.2
	c-0.8,1.5-1.8,3.8-3,6.8l-67.2,165c-1.2,3-2.7,4.6-4.7,4.6c-1.9,0-3.4-1.5-4.5-4.6l-63.3-164c-2.8-7.3-5.2-11.9-7.1-14.1
	C9.7,10.7,6.2,9.4,1,9C0.3,8.3,0,7.2,0,5.7s0.3-2.6,0.8-3.3c8.7,0.3,15.5,0.4,20.5,0.4c5.4,0,13.3-0.1,23.9-0.4
	c0.5,0.6,0.8,1.7,0.8,3.3c0,1.6-0.3,2.6-0.8,3.2c-6.6,0.7-10.5,2-11.7,4c-1.2,2-0.6,5.9,1.7,11.7L90.9,168h1l57.5-143.5
	c2.5-5.4,3.1-9.4,1.8-12.1C149.8,9.7,145.7,8,138.9,7.5z"/>
<path class="st0" d="M202,6.5c-0.5-0.5-0.8-1.6-0.8-3.2c0-1.6,0.2-2.7,0.8-3.4c10.8,0.3,17.9,0.4,21.5,0.4c3.7,0,39.9-0.1,47.7-0.4
	c0.6,0.6,1,1.7,1,3.3c0,1.6-0.3,2.6-1,3.2c-3,0.3-32.6-0.7-38,1.9c-2.1,1-3.9,2.4-5.4,4.4c-1.5,2-2.6,3.7-3.4,5.2
	c-0.8,1.5-1.8,3.8-3,6.8l-67.2,165c-1.2,3-2.7,4.6-4.7,4.6c-1.9,0-3.4-1.5-4.5-4.6l-63.3-164C79,18.6,76.6,14,74.7,11.8
	C72.8,9.7,69.3,8.4,64.1,8c-0.6-0.6-1-1.7-1-3.3s0.3-2.6,0.8-3.3c8.7,0.3,15.5,0.4,20.5,0.4c5.4,0,13.3-0.1,23.9-0.4
	c0.5,0.6,0.8,1.7,0.8,3.3c0,1.6-0.3,2.6-0.8,3.2c-6.6,0.7-10.5,2-11.7,4c-1.2,2-0.6,5.9,1.7,11.7L154,167h1l57.5-143.5
	c2.5-5.4,3.1-9.4,1.8-12.1C212.9,8.7,208.8,7.1,202,6.5z"/>
<path class="st0" d="M242.4,3.4c-0.1,1.3,29.2,2.8,28.8,3.2l-6.5,0.3c-3.9,0.4-5.8,0.7-7.7,2.1c-1.9,1.4-3.5,3.7-4.5,6.5
	l-69.2,162.1c-0.4,1-0.6,1.8-0.6,2.6c0,2.2,1,4.1,2.3,5.3c1.3,1.3,3.1,1.9,5.4,1.9h61.1c11.4,0,21.1-8.6,29-25.8
	c2.2-0.5,4.1-0.1,5.6,1.3c-5.4,13.4-9.2,23.3-11.5,31.6c-11.6-0.3-19-0.4-22.4-0.4h-79.5c-3.9,0-11.3,0.1-23.1,0.4
	c-0.4-0.9-1.1-2-0.9-3.2c0.1-1.3,0.4-2.1,0.8-2.5l6.1,0c3.9-0.4,5.9-0.9,7.8-2.3c1.9-1.4,3.4-3.6,4.5-6.5L240.6,7.4L242.4,3.4z"/>
</svg>
